<svg clip-rule="evenodd" fill-rule="evenodd" stroke-linejoin="round" stroke-miterlimit="2" viewBox="0 0 2058 609" xmlns="http://www.w3.org/2000/svg"><g fill="#fff" fill-rule="nonzero"><path d="m27.411 66.451c3.29.274 5.391.365 8.132.365 4.568 0 10.691-.182 15.168-.457l-7.218-15.807-.183-.457-.457-.823-4.111-9.229zm-27.411 20.101c.639-2.74.639-2.924 1.736-4.842l1.644-3.016c1.188-2.193 1.644-3.107 3.472-6.944 1.371-2.923 2.284-4.751 2.741-5.573.64-1.097.731-1.28.914-1.828.365-.731 1.188-2.558 2.467-5.3l1.371-2.924.365-.091-.183-.274 1.006-2.193 16.903-36.64c.366-.731 2.285-1.188 5.026-1.188 1.736 0 3.015.092 5.665.365l2.01 1.188 1.827 2.924 16.631 35.635.639 1.006c.091.091.457 1.005.914 2.375.092.274.366.914.731 1.645 1.644 3.564 3.381 7.127 5.117 10.6 1.735 3.654 3.563 7.217 5.299 10.781.366.732.457 1.188.457 1.737v1.095l-2.102-1.37v1.096l-1.37-.456.549 2.284-1.372.274-2.102-2.467.641 2.376-.458.457h-.457l-2.558-3.108 1.188 3.93-.822.364-1.553-.912-.091 1.096-.823.274-.549-.548.184 2.01-1.645-.092-1.005-1.278-.457 1.736-.731-.091-1.371-1.462-3.289-8.407-26.955-.639-8.315.457-4.751 10.416-1.645-.092v-.822l-1.005.366-.092-2.012.183-1.552-1.462 2.376-.731.274-.822-2.832-1.736 2.558-.914-.73.731-3.382-1.827 2.74-1.006-.182v-.73l-1.826 1.279c-.275-.914-.457-1.645-.457-2.011 0-.274.182-.913.457-1.827l-1.463 1.553-.913-.364z" transform="matrix(4.16667 0 0 4.16667 0 -3.53713)"/><path d="m85.844 41.598v-27.412l.731-.274.914 3.472v-.457l.822-.183.274-1.919.64-.274.457 4.386.822.091.183-4.111.913-.274.457 2.741c5.848-.366 8.59-.457 15.534-.457 12.243 0 17.361.731 22.569 3.198 8.315 4.02 13.523 11.33 13.523 19.188 0 .914-.091 1.918-.365 4.112l-.731.456c-.64-.913-.823-1.37-.823-2.101v-.365h-.091c-.183.822-.274 1.188-.64 2.376l-.548.365-.457-.182-.457-2.559h-.456v1.735l-.914.641-.457-1.098-1.097.183v1.462l1.097-.182c-.183 1.005-.183 1.187-.457 2.101l-.091.367-.092.364.731-1.462.457.274v2.742l1.371-1.828h.548c.183.823.183 1.188.183 1.828v1.096l1.827-2.65.548.366c-1.37 5.939-3.472 8.041-12.702 12.518-1.369.639-1.644.822-2.923 1.462l2.102 1.827 1.005.914c.183.183.456.457.73.64l3.108 2.924c.365.274.548.457.64.548l1.37 1.096.457.366.365.274c2.011 1.554 3.564 2.832 4.569 3.838.914.731 1.828 1.462 3.747 2.832l.731 1.188-1.28.456.913 1.645-.09.457-2.467-.64.456 1.554-1.005-.182-.913.364 1.187 1.555-.182.913-2.742-1.37.274 1.37-2.649-.822 2.284 2.74v1.006l-2.924-1.281.366 1.646h-.731l.639 1.92-2.193-.548.731 2.282c-4.294-2.376-5.299-3.288-10.051-8.862l-23.3-27.869v-.822l7.767-1.462c.183 0 .548-.183 1.097-.457.274-.183 1.005-.457 1.735-.731 2.559-1.005 2.833-1.096 7.311-2.65 2.74-.913 4.02-1.644 7.035-4.019.183-9.503-3.838-12.062-19.554-12.336l-6.761.091.365 59.209-.822.183-1.006-2.741-.457 2.558-.821.274-1.28-4.294-.092 3.38-.913.184-.822-1.918-.366 2.192-1.096-.274-.457-1.554-.731 2.284-.457.276-1.645-1.92-1.188 1.462-.548-1.462-.457 2.1-.822.55-.548-1.28-.731.274-.549-.822z" transform="matrix(4.16667 0 0 4.16667 0 -3.53713)"/><path d="m178.296 66.451c3.29.274 5.391.365 8.133.365 4.567 0 10.69-.182 15.167-.457l-7.219-15.807-.182-.457-.457-.823-4.112-9.229zm-27.411 20.101c.639-2.74.639-2.924 1.735-4.842l1.645-3.016c1.187-2.193 1.645-3.107 3.472-6.944 1.371-2.923 2.284-4.751 2.741-5.573.64-1.097.731-1.28.914-1.828.365-.731 1.188-2.558 2.467-5.3l1.371-2.924.365-.091-.183-.274 1.006-2.193 16.904-36.64c.365-.731 2.284-1.188 5.026-1.188 1.735 0 3.014.092 5.664.365l2.01 1.188 1.827 2.924 16.631 35.635.639 1.006c.092.091.457 1.005.914 2.375.091.274.365.914.731 1.645 1.645 3.564 3.38 7.127 5.116 10.6 1.737 3.654 3.564 7.217 5.3 10.781.365.732.457 1.188.457 1.737v1.095l-2.101-1.37v1.096l-1.372-.456.549 2.284-1.37.274-2.102-2.467.639 2.376-.456.457h-.457l-2.558-3.108 1.188 3.93-.823.364-1.553-.912-.091 1.096-.823.274-.548-.548.183 2.01-1.645-.092-1.005-1.278-.457 1.736-.731-.091-1.371-1.462-3.289-8.407-26.955-.639-8.315.457-4.751 10.416-1.645-.092v-.822l-1.005.366-.092-2.012.183-1.552-1.462 2.376-.731.274-.822-2.832-1.736 2.558-.914-.73.731-3.382-1.828 2.74-1.004-.182v-.73l-1.828 1.279c-.274-.914-.457-1.645-.457-2.011 0-.274.183-.913.457-1.827l-1.462 1.553-.914-.364z" transform="matrix(4.16667 0 0 4.16667 0 -3.53713)"/><path d="m251.896 79.699 1.462.458-.365-.365-.092-2.103.732-.183-.732-2.65h2.011l.365-.731-1.096-.913.091-.822 1.645.274-1.189-1.371 1.554-.457-1.462-1.187.092-1.096 1.097.365c1.006.274 1.643.548 1.918.64l.73.274c.184.091.64.273 1.098.457l1.095.365c5.392 2.101 9.412 3.014 12.884 3.014 1.006 0 2.65-.09 4.386-.364l.092-.64.092-.64c.182-1.004.364-2.192.364-2.558 0-4.66-3.746-8.68-12.152-12.884-3.564.183-5.756.275-6.579.275h-.457c-.639 0-2.009-.092-3.655-.275v-.548l1.918-.731-2.558-.091v-.914l2.286-1.188-2.743-.091 2.011-1.828h-1.279l-.365-.548 1.37-1.005-2.832-.548.182-.914 2.557-1.279-2.191-.457 1.918-1.279-1.736-.823v-.821l.549-.457 2.74-.367 6.397-.182c7.127-.182 11.787-2.558 11.787-6.031 0-3.106-3.472-4.933-9.32-4.933-.824 0-2.284 0-3.748.091-2.374.091-5.848.183-10.506.274l-.183.274-.274 37.919-.182 6.213zm-14.985-35.451-.182-30.154 1.096 3.564h.548l.64-3.472.914 3.38h1.37l.274-3.198.549.64.548 2.376c7.036-.457 11.787-.64 18-.64 11.97 0 18.274 1.188 23.848 4.477 5.209 3.107 8.315 8.407 8.315 14.255 0 5.755-2.376 10.05-8.405 15.258 3.836 2.467 5.116 3.655 6.67 6.214 2.557 4.203 3.929 8.772 3.929 13.341 0 3.015-.458 4.751-2.194 8.315h-.73l.456-3.93h-.091c-.548 2.101-.639 2.284-1.189 3.838l-1.004-.182-.091-1.645-.731.09c0 .457 0 .641-.092 1.098l-.092.273v.274l-.914.184-.366-1.462-.638.274-.274 1.918-.915.091-2.374 2.742 3.197-2.285 1.004.367c-.821 1.186-1.277 1.826-2.832 3.927l3.017-2.649.821.457-.64 1.37-.456 1.006 1.645-1.188 1.37-.182c-1.553 2.283-2.559 3.198-4.202 3.928-3.017 1.279-7.22 2.01-11.788 2.01-7.949 0-14.619-1.553-23.026-5.3.091 1.188.091 2.102.091 3.29 0 1.004-.182 1.827-.548 3.29l-1.187.274-1.189-2.742-1.187 2.65-.64-1.736-.639 1.918-.914.458-1.005-3.108-.091 1.464-.457.09-.274.366-.823-1.462-.456 2.102-1.006.09-.913-1.644-.731 1.28-.823-1.096-1.279 1.918h-.822l-.731-2.741z" transform="matrix(4.16667 0 0 4.16667 0 -3.53713)"/><path d="m305.934 65.811.366-24.487-.64-24.854.366-1.553h.823l1.095 1.735.366-.182.184-.731.364-.092 1.096 1.28.366-1.737.732-.09 1.095 2.192.093-1.279 1.096-.366.914 3.016.64-2.832.73-.731.914 3.014.548-2.192.731-.822 1.097 1.644.273.457.367-2.193 1.37-.091.639.639-.274 22.843-.184 22.844.275 15.35-.183 13.705-1.095.823-.64-1.005-.914.456-.731-1.644-.183 1.462-1.004.182-.733-3.106-.365 3.472-1.096.183-.822-3.473-.366 1.738-.73.364-.823-1.828-.639 2.286h-1.098l-.73-1.919-.366 1.097-1.552.09-.64 1.28-.914-.184-.092-.274z" transform="matrix(4.16667 0 0 4.16667 0 -3.53713)"/><path d="m394.167 64.806c-1.735 7.127-3.472 9.868-9.409 15.533-3.93 3.747-5.485 4.751-9.596 6.397-3.563 1.461-7.858 2.467-10.05 2.467-.183 0-1.096-.091-2.742-.183-.64.092-1.278.092-1.644.092-3.656 0-9.87-1.554-13.341-3.382-9.684-5.116-15.533-17.086-15.533-31.797 0-8.041 2.467-20.011 5.117-24.762 4.568-8.224 15.807-13.706 28.051-13.706 9.594 0 17.087 3.289 23.209 10.234 2.01 2.284 3.838 5.665 4.112 7.858l.182 1.279-.548.274-2.467-2.741v.091l1.462 3.198-1.189.457-3.472-4.111 1.373 2.467.456 1.827-1.737-.731.548 2.376-.548.274-3.015-2.559.822 2.65-2.559-.822.092 1.279-1.827.365.182 1.097-.823 1.004-1.004-.364c-4.66-8.041-7.128-10.234-11.605-10.234-3.472 0-8.222 1.188-11.42 2.924-5.392 2.833-7.859 8.498-7.859 18.091 0 13.067 5.574 21.656 14.163 21.656 5.3 0 10.599-2.011 13.34-5.026 1.553-1.736 2.467-3.746 4.021-8.497l.822-.183.731 1.553.822-.457.275-.548.731.183.092 1.827 1.37-.548-.275 3.381 1.371-2.559 1.005.183-.091 2.559 1.92-3.016 1.003.366-.274 3.381 1.37-1.554.733.183-.275 1.188 1.004-.366-.548 1.645.64.183 2.194-2.833z" transform="matrix(4.16667 0 0 4.16667 0 -3.53713)"/><path d="m422.705 66.451c3.288.274 5.391.365 8.132.365 4.568 0 10.69-.182 15.168-.457l-7.218-15.807-.184-.457-.457-.823-4.111-9.229zm-27.413 20.101c.64-2.74.64-2.924 1.736-4.842l1.646-3.016c1.188-2.193 1.644-3.107 3.472-6.944 1.37-2.923 2.284-4.751 2.742-5.573.638-1.097.73-1.28.912-1.828.366-.731 1.188-2.558 2.467-5.3l1.371-2.924.366-.091-.183-.274 1.005-2.193 16.903-36.64c.367-.731 2.287-1.188 5.026-1.188 1.736 0 3.016.092 5.666.365l2.01 1.188 1.828 2.924 16.63 35.635.639 1.006c.09.091.456 1.005.914 2.375.09.274.365.914.731 1.645 1.643 3.564 3.381 7.127 5.117 10.6 1.736 3.654 3.562 7.217 5.298 10.781.366.732.458 1.188.458 1.737v1.095l-2.102-1.37v1.096l-1.37-.456.548 2.284-1.37.274-2.102-2.467.64 2.376-.458.457h-.456l-2.56-3.108 1.189 3.93-.823.364-1.552-.912-.092 1.096-.822.274-.549-.548.183 2.01-1.644-.092-1.006-1.278-.458 1.736-.729-.091-1.371-1.462-3.29-8.407-26.955-.639-8.313.457-4.752 10.416-1.646-.092v-.822l-1.004.366-.092-2.012.183-1.552-1.462 2.376-.731.274-.822-2.832-1.736 2.558-.914-.73.73-3.382-1.826 2.74-1.006-.182v-.73l-1.827 1.279c-.275-.914-.456-1.645-.456-2.011 0-.274.181-.913.456-1.827l-1.462 1.553-.913-.364z" transform="matrix(4.16667 0 0 4.16667 0 -3.53713)"/><path d="m15.766 131.584c4.309 0 5.602-2.825 5.602-5.458 0-2.634-1.293-5.459-5.602-5.459h-5.649v10.917zm-9.48-14.125h9.48c6.56 0 9.384 4.022 9.384 8.667 0 4.644-2.824 8.666-9.384 8.666h-5.649v11.394h-3.831z" transform="matrix(4.16667 0 0 4.16667 0 -3.53713)"/><path d="m47.817 131.104c4.309 0 5.602-2.585 5.602-5.218 0-2.634-1.293-5.219-5.602-5.219h-5.65v10.437zm-9.479-13.645h9.479c6.559 0 9.384 3.783 9.384 8.427 0 3.735-1.82 6.894-5.937 7.997l8.713 12.303h-4.452l-8.234-11.874h-5.124v11.874h-3.829z" transform="matrix(4.16667 0 0 4.16667 0 -3.53713)"/><path d="m72.839 117.459h17.379v3.208h-13.55v8.762h11.156v3.208h-11.156v10.342h13.55v3.207h-17.379z" transform="matrix(4.16667 0 0 4.16667 0 -3.53713)"/><path d="m104.42 117.459h3.734l11.108 23.845 11.107-23.845h3.543v28.727h-3.686v-19.582c0-.718.095-2.346.095-2.393-.095.143-.718 1.722-1.006 2.393l-8.952 19.582h-2.585l-8.953-19.582c-.335-.671-.958-2.25-1.006-2.393 0 .047.096 1.675.096 2.393v19.582h-3.495z" transform="matrix(4.16667 0 0 4.16667 0 -3.53713)"/><path d="m624.95049996 485.87576153h15.9583461v119.69592909h-15.9583461z" stroke-width="4.16667"/><g transform="matrix(4.16667 0 0 4.16667 0 -3.53713)"><path d="m169.752 132.924v-15.465h3.926v15.513c0 7.421 3.351 10.675 8.618 10.675 5.266 0 8.617-3.254 8.617-10.675v-15.513h3.735v15.465c0 9.719-5.027 14.076-12.448 14.076s-12.448-4.357-12.448-14.076z"/><path d="m210.61 117.459h3.734l11.108 23.845 11.107-23.845h3.543v28.727h-3.687v-19.582c0-.718.096-2.346.096-2.393-.096.143-.719 1.722-1.005 2.393l-8.953 19.582h-2.586l-8.953-19.582c-.335-.671-.957-2.25-1.006-2.393 0 .047.096 1.675.096 2.393v19.582h-3.494z"/><path d="m272.642 131.822c0-9.287 6.99-14.985 15.273-14.985 3.638 0 7.564 1.197 9.958 3.016v3.975c-2.345-2.108-5.504-3.783-9.958-3.783-6.607 0-11.297 4.595-11.297 11.777 0 7.135 4.69 11.779 11.297 11.779 4.454 0 7.613-1.675 9.958-3.784v3.975c-2.394 1.818-6.32 3.016-9.958 3.016-8.283 0-15.273-5.698-15.273-14.986z"/><path d="m337.032 131.822c0-6.989-4.692-11.969-11.251-11.969-6.607 0-11.3 4.98-11.3 11.969 0 6.943 4.693 11.97 11.3 11.97 6.559 0 11.251-5.027 11.251-11.97zm-26.525 0c0-8.81 6.464-15.176 15.274-15.176 8.76 0 15.224 6.366 15.224 15.176 0 8.811-6.464 15.178-15.224 15.178-8.81 0-15.274-6.367-15.274-15.178z"/><path d="m355.618 117.459h17.379v3.208h-13.549v8.762h11.155v3.208h-11.155v13.549h-3.83z"/><path d="m386.118 117.459h17.379v3.208h-13.55v8.762h11.156v3.208h-11.156v13.549h-3.829z"/><path d="m416.616 117.459h17.379v3.208h-13.55v8.762h11.156v3.208h-11.156v10.342h13.55v3.207h-17.379z"/><path d="m448.198 117.459h17.379v3.208h-13.549v8.762h11.155v3.208h-11.155v10.342h13.549v3.207h-17.379z"/><path d="m478.266 25.796c.685-.544 1.312-1.139 1.817-1.834.503-.693.897-1.456 1.169-2.236-.224.618-.472 1.229-.819 1.77.491-.83.907-1.542 1.384-2.511.125.368-.238.978-.031 1.237-.971 2.453-3.269 3.973-5.518 4.184.314-.491.644-.513.996-.516.349.01.746.103 1.002-.094z"/><path d="m482.54 18.125c-.007.274-.013.542-.02.805-.022-.284-.035-.558.02-.805z"/><path d="m462.977 20.91c-.141-.356-.194-.735-.261-1.098.133.357.151.735.261 1.098z"/><path d="m475.653 28.602c-.165.084-.336.154-.512.217-1.373.065-2.781-.135-4.056-.608 1.431.483 3.051.256 4.568.391z"/><path d="m477.27 28.923c1.383-.47 2.71-1.096 3.99-1.829-1.23.784-2.556 1.434-3.99 1.829z"/><path d="m462.588 7.588c-.053-.034-.064-.095-.055-.166.028-.059.046-.118.05-.178.301-.306.636-.577.976-.838.336-.266.673-.523 1.042-.738-.142.157-.226.359-.377.505-.722.564-1.118.48-1.636 1.415z"/><path d="m463.09 21.315.042.031.129.361c-.003.016-.006.03-.009.05-.065-.143-.116-.291-.162-.442z"/><path d="m461.898 8.408c-.104-.055-.21-.11-.328-.103.299-.381.658-.717 1.005-1.054-.018.061-.035.119-.042.171-.142.295-.567.599-.635.986z"/><path d="m457.966 18.186c.016.298.266.553.332.687-.147.758-.203 1.547-.166 2.482.075.132.156.433.335.688-.058.186-.097.386-.123.595-.465-2.036-.562-4.102-.309-6.181-.009.562-.032 1.134-.069 1.729z"/><path d="m486.459 17.8c-.11-1.091-.126-2.282-.367-3.463-.244-1.169-.68-2.337-1.507-3.127.448 1.202.832 2.645.834 3.849.031 1.201-.221 2.118-.739 2.304-.505.182-.55-.55-.602-1.544-.082-.981-.212-2.276-.626-3.043-.012.251-.012.251-.023.501.013-.245.023-.502-.166-.633-.009.506.118 1.366-.162 1.698l-.344-.276c-.108.318-.151.658-.194 1.016-.068.366-.086.734-.15 1.106-.118.741-.332 1.465-.702 1.937.617-1.154.85-2.578.597-4.002-.248-1.422-1.022-2.803-2.148-3.848-1.125-1.056-2.631-1.682-4.166-1.93-1.546-.231-3.176-.052-4.559.356-1.55.551-2.677 1.696-3.316 2.91-.63 1.246-.754 2.599-.585 3.822-.022.21-.047.59-.163.981-.055.418-.177.865-.212 1.272.107 1.428.522 2.79 1.357 3.652.675 1.007 1.305 1.768 2.118 2.414.4.33.887.564 1.416.776.543.187 1.164.276 1.831.266.257-.024.577.202.696.489.114.28.001.616-.761.79-1.279.33-2.62.146-3.727-.438.29-.237.709.227 1.067.069-.756-.503-1.285-.921-1.936-1.43.436.337.89.638 1.397.851-1.268-.55-2.322-1.664-3.174-3.064-.125-.278-.03-.618.047-.968.032-.172.033-.335-.024-.498-.042-.172-.154-.338-.384-.513.049 2.206 1.035 4.471 3.007 5.553l-.022.016c.885.435 1.754.734 2.758.845-.311-.007-.649.026-.893-.113 1.335.646 3.028.631 4.44.296-.92.56-2.107.851-3.315.828-1.201-.013-2.385-.321-3.425-.879-2.116-1.112-3.493-3.195-4.305-5.443-.061.718.256 1.477.66 2.116.195.327.394.638.58.932.16.315.318.601.387.934-1.484-1.657-2.219-3.964-2.191-6.324.047.172.082.343.17.502.238-1.447.035-3.001.496-4.338l.146-.341-.146.341c-.448 1.198-.661 2.527-.666 3.836-.166-.591-.152-1.249-.025-2.001-.252.385-.394.998-.466 1.614.007.809.069 1.617.221 2.393-.28-1.188-.541-2.409-.703-3.587-.322 1.737-.121 3.591.363 5.297-.348-.911-.646-1.858-.779-2.843-.078-1.667.118-3.353.59-4.935l-.021.19c.027-.123.04-.25.074-.369l.328-.911.399-.879c.246-.519.387-1.089.596-1.647l.161-.246c-.024.213.012.342.251.086.284-.25.555-.509.802-.801.283-.254.525-.565.829-.822.588-.524 1.281-1.023 2.136-1.172.215-.056.456-.135.719-.235.261-.105.532-.256.839-.361.189.032.264-.035.327-.13.131-.048.262-.113.4-.149.341-.06.683-.119 1.016-.238-.337.055-.679.147-1.016.238-.129.02-.249.069-.372.106.066-.102.134-.235.325-.276-2.383.374-4.779 1.646-6.256 3.754.013-.18.092-.396.11-.5-.115.237-.186.499-.271.746-.471.675-.801 1.443-1.059 2.221.042-.246.055-.489.026-.728-1.059 2.15-1.302 4.687-.933 7.058.103 2.246.785 4.506 2.174 6.325-.548-1.135-1.036-2.275-1.395-3.482 1.275 3.101 3.827 5.453 6.999 6.512-.679.236-1.577.158-2.153.424-.093.254 1.039.734.318.62-1.34-.196-2.39-.783-3.187-1.325-.426-.247-.778-.505-1.158-.676-.389-.164-.762-.283-1.202-.3-.209.026-.031.891.24 1.655.231.788.531 1.46-.038 1.185-.84-.578-2.266-1.807-3.352-3.472-.238-.515-.539-1.027-.77-1.581-.007-.079-.125-.163-.264-.276-.903-1.92-1.298-3.882-1.313-4.945-.028-.399-.034-.789-.016-1.175.062-.206.148-.381.262-.517-.095-.236-.185-.478-.219-.72.051-.512.102-1.019.153-1.523.089-.506.177-1.009.265-1.508.222-.541.469-1.065.695-1.579-.083-.011-.218.048-.264-.078.413-1.231.881-2.445 1.568-3.575.338-.42.747-.744 1.172-.967.042-.394.23-.844.55-1.296.297-.469.725-.93 1.213-1.37.466-.461 1.052-.83 1.584-1.221.575-.331 1.108-.701 1.624-.961l-.015-.023c.526-.253 1.054-.51 1.611-.685l.831-.284.849-.204c.204.023.399.061.583.116.252-.182.546-.221.675-.307.924-.063 1.688.083 2.433.208.133-.071.395-.289.69-.286.588.045 1.157.076 1.72.156.653.101 1.304.298 1.954.505 2.188.728 4.134 2.087 5.571 3.749-.014.116-.083.211-.152.308.351.12.596.535.841.715-.067-.018-.125-.013-.166.035.793.61.676.948 1.071 1.708.112.157.318.242.435.395l.109.265c.008.554.162 1 .318 1.458.174.45.401.893.539 1.395.109.512.169 1.025.202 1.536.059.509.051 1.016.045 1.517.02.794-.364 1.109-.545 1.633z"/><path d="m464.865 5.504c.936-.586 1.948-1.016 2.962-1.343-1.055.469-1.823 1.115-2.962 1.343z"/><path d="m464.433 31.437c.223.467.582.88 1.021 1.272-2.608-1.601-4.665-3.997-5.95-6.688l.023-.014c.579 1.041 1.256 2.36 2.168 3.412.868 1.074 1.921 1.861 2.738 2.018z"/><path d="m462.533 7.422c.007-.052.024-.11.042-.171l.008-.007c-.004.06-.022.119-.05.178z"/><path d="m470.67 29.621.192.056c-.513-.049-.998-.222-1.5-.355.426.045.851.204 1.308.299z"/><path d="m476.14 30.144c1.031-.25 2.047-.588 2.962-1.118 1.252-.531 2.405-1.243 3.523-2.024-.874.878-1.891 1.602-2.99 2.143-1.112.522-2.299.841-3.495.999z"/><path d="m469.406 34.217c.563.239 1.141.539 1.738.722-.612-.095-1.218-.29-1.818-.459.136-.048.068-.179.08-.263z"/><path d="m466.739 27.894.256.191c-.255-.113-.532-.211-.79-.34.104.036.354.11.534.149z"/><path d="m475.848 35.297c-.464.03-.916.008-1.369.009.268-.059.529-.139.787-.244.153.109.35.201.582.235z"/><path d="m482.736 32.881c.573-.329 1.086-.709 1.591-1.066-.295.244-.594.491-.893.738l-.967.651c.108-.164.185-.3.269-.323z"/><path d="m464.447 33.959c-1.753-.881-3.367-2.128-4.646-3.612-1.289-1.474-2.294-3.126-3.021-4.784.608 1.313 1.301 2.598 2.212 3.735-1.308-1.735-2.086-3.46-2.533-5.581.43.544.714 1.923 1.185 2.087 1.049 2.32 2.548 4.478 4.449 6.246 1.889 1.781 4.196 3.106 6.617 3.931-.543.077-1.005-.037-1.419-.161-.412-.139-.776-.304-1.088-.549-.631-.469-1.141-.942-1.756-1.312z"/><path d="m456.016 18.125c.027.5.054.987.082 1.468-.059-.51-.107-1.016-.082-1.468z"/><path d="m488.808 21.808c.095-.49.102-.994.165-1.471.002.489-.04.989-.165 1.471z"/><path d="m471.12 34.419c.287-.019.57-.024.857-.022 2.106.287 4.301.266 6.505-.183-2.358.528-5.006.941-7.362.205z"/><path d="m469.03 33.286c-2.044-.552-3.96-1.724-5.256-3.233 1.345 1.45 3.207 2.582 5.256 3.233z"/><path d="m482.481 10.152c-.041.047-.094.058-.151.054-.042-.021-.086-.034-.134-.033-.361-.47-.735-.956-1.188-1.366.14.062.326.051.457.138.236.25.312.473.433.652.12.183.273.336.583.555z"/><path d="m488.699 22.354.021.059c-.028.17-.042.341-.081.506-.013.017-.024.032-.04.052.045-.202.057-.414.1-.617z"/><path d="m482.966 10.749c-.084.083-.169.167-.213.266-.155-.299-.373-.548-.553-.836.045.012.089.024.13.027.205.117.369.437.636.543z"/><path d="m484.483 18.179c-.006.215.224.416.28.524-.155.574-.419 1.095-.592 1.715.035.107-.011.308.062.528-.121.092-.229.194-.328.302.393-1.303.579-2.799.526-4.334.032.408.063.83.052 1.265z"/><path d="m459.965 17.764c-.07-1.234.237-2.539.626-3.766.442-1.216.883-2.389 1.269-3.544-.931 1.067-1.697 2.612-2.204 3.954-.542 1.333-.899 2.462-1.42 2.663-.264.101-.39-.116-.428-.547-.017-.428.102-1.064.256-1.777.387-1.43 1.195-3.069 1.743-4.168-.238.25-.238.25-.474.499.243-.252.464-.503.499-.815-.491.477-1.227 1.58-1.641 1.841l-.024-.669c-.329.346-.659.815-.987 1.351-.28.546-.561 1.162-.809 1.793-.204.635-.443 1.283-.622 1.891-.169.608-.351 1.177-.564 1.655.64-2.317 1.41-4.719 2.638-7.019 1.226-2.291 2.901-4.459 5.026-6.203 2.14-1.717 4.718-2.955 7.416-3.583 2.7-.604 5.481-.631 8.124-.059 2.977.506 5.824 1.688 8.296 3.454 2.496 1.745 4.495 4.155 5.935 6.814.276.507.505 1.435.734 2.467.157 1.034.294 2.176.264 3.115.194 1.66.12 3.336-.039 5.043-.246 1.697-.569 3.423-1.183 5.105-.317.895-.811 1.718-1.273 2.55-.541.786-1.066 1.591-1.729 2.286-1.254 1.449-2.788 2.651-4.44 3.613-3.321 1.955-7.15 2.787-10.985 2.889-.772-.005-1.671-.302-1.884-.599-.216-.308.229-.58 2.017-.688 2.954-.379 5.889-1.157 8.617-2.512-.18.439-1.58.893-2.156 1.297 2.2-.573 3.988-1.432 5.76-2.886-1.195.947-2.463 1.821-3.844 2.455 3.442-1.571 6.782-4.617 8.51-8.397.292-.689.872-1.21 1.269-1.913.208-.346.401-.726.539-1.161.123-.436.155-.934.103-1.492-.748 2.573-2.057 5.041-3.822 7.122-1.761 2.085-3.954 3.79-6.359 4.975.005-.011.011-.022.013-.032-2.122 1.111-4.242 1.659-6.471 1.915.689-.151 1.385-.266 2-.38-.818.137-1.636.135-2.439.21-.804-.022-1.601.032-2.391-.045-.791-.058-1.578-.111-2.363-.263-.786-.101-1.56-.309-2.332-.513 2.253.325 4.501.36 6.745.087 2.246-.268 4.51-.864 6.607-1.893 2.094-1.022 4.007-2.483 5.495-4.275 1.494-1.785 2.55-3.89 3.082-6.028-.639 1.094-1.089 2.438-1.795 3.657-.646 1.239-1.536 2.327-2.501 2.873 2.802-2.846 4.438-6.735 4.829-10.746.02.301.062.597.068.898.655-2.496.149-5.262-.555-7.725l-.195-.666.195.666c.596 2.303.707 4.611.487 6.827-.043-1.063-.085-2.103-.138-3.396-.044.36-.124.789-.161 1.252-.042.462-.055.958-.142 1.45-.038.649-.06 1.297-.184 1.938l-.154.96-.244.941c.445-1.95.451-3.942.043-5.668-.043 2.618-.43 5.318-1.522 7.703.457-1.354.845-2.736.941-4.149.4-2.334.357-4.788-.255-7.18l.087.268c-.045-.182-.097-.361-.169-.535-.151-.458-.284-.925-.457-1.379l-.597-1.338c-.456-.756-1.008-1.432-1.666-1.988l-.259-.339c.236.154.406.194.12-.255-.628-.949-1.509-1.776-2.52-2.461-.252-.174-.505-.349-.761-.525-.266-.159-.533-.319-.805-.48-.525-.354-1.093-.638-1.647-1.007-.285-.207-.672-.329-1.092-.467-.42-.143-.888-.255-1.385-.313-.244-.137-.394-.124-.533-.079-.211-.028-.423-.07-.64-.074-.519-.057-1.041-.14-1.554-.114.502.037 1.025.075 1.554.114.197.016.387.06.579.095-.15.06-.302.106-.587.08 3.507.694 6.889 2.621 9.271 5.486-.207-.118-.484-.291-.61-.351.304.211.605.431.869.69.371.472.738.948 1.043 1.469.343.497.619 1.032.894 1.571-.205-.303-.421-.569-.651-.774 1.493 3.038 2.113 6.485 1.771 9.886-.246 1.585-.783 3.107-1.485 4.514-.691 1.416-1.624 2.697-2.717 3.796 1.354-1.024 2.487-2.489 3.261-4.161-.873 2.284-2.324 4.38-4.219 5.971-1.889 1.599-4.235 2.609-6.618 3.006.778-.522 1.787-1.18 2.081-1.796-.116-.183-1.491.185-.753-.207 1.285-.811 2.354-1.432 3.12-2.127.192-.171.37-.336.528-.501.146-.18.267-.366.369-.549.201-.367.313-.736.247-1.175-.029-.099-.235-.087-.507-.039-.29.038-.645.082-.988.126-.658.085-1.254-.02-.99-.348.461-.515 1.306-1.377 1.932-2.501.225-.293.434-.619.64-.962.042-.035.011-.146-.021-.278.55-1.277.874-2.597 1.009-3.366.077-.278.145-.558.17-.85.077-.148.177-.274.301-.374-.087-.189-.123-.376-.187-.56.01-.394.019-.786.028-1.175-.032-.384-.064-.766-.096-1.146-.003-.423.052-.877.013-1.306-.076.033-.159.128-.264.078-.258-.898-.587-1.77-1.069-2.544-.076-.392-.198-.724-.198-1.122-.59-.195-1.186-.74-1.858-1.332-.686-.564-1.464-1.188-2.239-1.463l-.01.026-.552-.266-.586-.211c-.383-.161-.796-.261-1.212-.364-.122-.104-.236-.218-.342-.344-.239.091-.465.07-.58.115-.666-.224-1.266-.364-1.878-.563-.114.057-.32.314-.551.33-.47-.012-.923.017-1.347.115-.515.021-1.016.115-1.528.204-1.719.307-3.335.939-4.762 1.91-.101-.034-.188-.113-.275-.192-.096.303-.487.443-.58.695.003-.062-.011-.117-.06-.155-.394.736-.728.629-1.234 1.182-.097.138-.094.329-.163.476l-.152.191c-.883.437-1.152 1.309-1.478 2.203-.23.429-.45.869-.613 1.338-.2.457-.345.937-.472 1.429-.234.771-.522 1.069-.787 1.64z"/><path d="m480.848 8.649c-.581-.56-1.248-1.039-1.96-1.486.799.365 1.624.603 1.96 1.486z"/><path d="m480.325 26.964c-.343.011-.727-.004-1.061.09.814-.393 1.497-.967 2.155-1.56.621-.635 1.162-1.352 1.618-2.147l.024.011c-.332.656-.862 1.386-1.455 1.943-.552.6-1.098 1.09-1.281 1.663z"/><path d="m482.33 10.206c-.041-.003-.085-.015-.13-.027l-.004-.006c.048-.001.092.012.134.033z"/><path d="m478.139 32.786-.258.054c.642-.18 1.25-.462 1.864-.708-.473.24-1.009.523-1.606.654z"/><path d="m471.068 32.8c-1.32-.199-2.643-.511-3.876-1.061-1.54-.796-2.874-1.91-3.776-3.222 1.005 1.049 2.166 1.96 3.453 2.7 1.289.739 2.721 1.236 4.199 1.583z"/><path d="m476.92 28.176c-.406-.002-.81-.019-1.226-.098.405-.01.78-.098 1.161-.169-.051.095.036.188.065.267z"/><path d="m483.016 30.214-.321.242c.227-.258.458-.521.69-.785-.065.116-.251.354-.369.543z"/><path d="m472.653 27.917c.28.07.579.081.868.129-.175.038-.352.097-.535.182-.087-.125-.206-.212-.333-.311z"/><path d="m468.579 26.671c-.154-.095-.308-.189-.458-.282-.131-.114-.261-.227-.388-.338.336.24.727.42 1.097.617-.121.023-.224.048-.251.003z"/></g></g></svg>