<svg fill="none" height="66" viewBox="0 0 335 66" width="335" xmlns="http://www.w3.org/2000/svg"><path d="m3 12.3332c8.3862 0 16.9417-1.0188 25.2778-1.5556 34.2506-2.2055 68.5414-4.35325 102.8332-5.77774 60.698-2.52137 122.099-4.688627 182 6.88884.475.0918 23.734 4.3266 17.556 6.2778-4.008 1.2657-9.337.8114-13.445.9445-61.333 1.9876-121.833-2.5608-182.555 9.3333-8.745 1.7129-35.446 3.5342-41.0003 14.4444-1.9244 3.7801 4.7671 4.5677 6.8333 4.8334 26.844 3.4514 54.234-2.5627 81.111-2.0556 16.143.3046 33.543 1.2434 49.278 5.2222 3.419.8647-7.827 3.8608-8.111 3.9445-5.608 1.6535-13.684 2.3528-18.445 6.0555-1.507 1.1721 3.537 1.7128 5.445 1.7778 6.524.2224 12.753-.8481 19.222-1.3333" stroke="#e28d93" stroke-linecap="round" stroke-opacity=".5" stroke-width="6"/></svg>